<svg xmlns="http://www.w3.org/2000/svg" viewBox="0 0 360 720" fill="none">
<!-- btf vpn · матричный дождь v5 · латиница и цифры
     Статичный (Motion-запрет анимации фона). Тело колонок opacity .14–.22,
     «головы» .35–.5, всполохи cyan. Тайл 360×720, repeat-y. -->
<defs><filter id="matrix-neon" x="-20%" y="-10%" width="140%" height="120%"><feGaussianBlur stdDeviation="1.15" result="glow"/><feMerge><feMergeNode in="glow"/><feMergeNode in="SourceGraphic"/></feMerge></filter></defs>
<g font-family="ui-monospace, monospace" font-size="14" filter="url(#matrix-neon)">
<text x="8" y="-70" fill="#6AFFB5" opacity="0.32"><tspan x="8" dy="17">L</tspan><tspan x="8" dy="17">S</tspan><tspan x="8" dy="17">0</tspan><tspan x="8" dy="17">Y</tspan><tspan x="8" dy="17">1</tspan><tspan x="8" dy="17">0</tspan><tspan x="8" dy="17">0</tspan><tspan x="8" dy="17">Y</tspan><tspan x="8" dy="17">1</tspan><tspan x="8" dy="17">C</tspan><tspan x="8" dy="17">K</tspan><tspan x="8" dy="17">E</tspan><tspan x="8" dy="17">0</tspan><tspan x="8" dy="17">E</tspan><tspan x="8" dy="17">1</tspan><tspan x="8" dy="17">1</tspan><tspan x="8" dy="17">N</tspan><tspan x="8" dy="17">Y</tspan><tspan x="8" dy="17">1</tspan><tspan x="8" dy="17">1</tspan><tspan x="8" dy="17">K</tspan><tspan x="8" dy="17">X</tspan><tspan x="8" dy="17">0</tspan><tspan x="8" dy="17">Z</tspan><tspan x="8" dy="17">B</tspan><tspan x="8" dy="17">1</tspan><tspan x="8" dy="17">K</tspan><tspan x="8" dy="17">1</tspan><tspan x="8" dy="17">1</tspan><tspan x="8" dy="17">X</tspan><tspan x="8" dy="17">K</tspan><tspan x="8" dy="17">S</tspan><tspan x="8" dy="17">1</tspan><tspan x="8" dy="17">0</tspan><tspan x="8" dy="17">V</tspan><tspan x="8" dy="17">0</tspan><tspan x="8" dy="17">M</tspan><tspan x="8" dy="17">0</tspan><tspan x="8" dy="17">B</tspan><tspan x="8" dy="17">B</tspan><tspan x="8" dy="17">1</tspan><tspan x="8" dy="17">1</tspan><tspan x="8" dy="17">0</tspan><tspan x="8" dy="17">1</tspan><tspan x="8" dy="17">O</tspan><tspan x="8" dy="17">M</tspan></text>
<text x="32" y="-242" fill="#6AFFB5" opacity="0.26"><tspan x="32" dy="17">V</tspan><tspan x="32" dy="17">H</tspan><tspan x="32" dy="17">O</tspan><tspan x="32" dy="17">L</tspan><tspan x="32" dy="17">1</tspan><tspan x="32" dy="17">Z</tspan><tspan x="32" dy="17">C</tspan><tspan x="32" dy="17">D</tspan><tspan x="32" dy="17">Y</tspan><tspan x="32" dy="17">E</tspan><tspan x="32" dy="17">1</tspan><tspan x="32" dy="17">0</tspan><tspan x="32" dy="17">T</tspan><tspan x="32" dy="17">M</tspan><tspan x="32" dy="17">B</tspan><tspan x="32" dy="17">Y</tspan><tspan x="32" dy="17">W</tspan><tspan x="32" dy="17">H</tspan><tspan x="32" dy="17">0</tspan><tspan x="32" dy="17">X</tspan><tspan x="32" dy="17">F</tspan><tspan x="32" dy="17">0</tspan><tspan x="32" dy="17">1</tspan><tspan x="32" dy="17">Y</tspan><tspan x="32" dy="17">0</tspan><tspan x="32" dy="17">Z</tspan><tspan x="32" dy="17">1</tspan><tspan x="32" dy="17">Y</tspan><tspan x="32" dy="17">F</tspan><tspan x="32" dy="17">Z</tspan><tspan x="32" dy="17">1</tspan><tspan x="32" dy="17">Y</tspan><tspan x="32" dy="17">O</tspan><tspan x="32" dy="17">M</tspan><tspan x="32" dy="17">K</tspan><tspan x="32" dy="17">1</tspan><tspan x="32" dy="17">0</tspan><tspan x="32" dy="17">0</tspan><tspan x="32" dy="17">R</tspan><tspan x="32" dy="17">C</tspan><tspan x="32" dy="17">0</tspan><tspan x="32" dy="17">0</tspan><tspan x="32" dy="17">X</tspan><tspan x="32" dy="17">U</tspan><tspan x="32" dy="17">Q</tspan><tspan x="32" dy="17">B</tspan></text>
<text x="56" y="-153" fill="#63F3FF" opacity="0.31"><tspan x="56" dy="17">0</tspan><tspan x="56" dy="17">H</tspan><tspan x="56" dy="17">1</tspan><tspan x="56" dy="17">V</tspan><tspan x="56" dy="17">B</tspan><tspan x="56" dy="17">1</tspan><tspan x="56" dy="17">B</tspan><tspan x="56" dy="17">0</tspan><tspan x="56" dy="17">F</tspan><tspan x="56" dy="17">1</tspan><tspan x="56" dy="17">X</tspan><tspan x="56" dy="17">0</tspan><tspan x="56" dy="17">0</tspan><tspan x="56" dy="17">S</tspan><tspan x="56" dy="17">1</tspan><tspan x="56" dy="17">M</tspan><tspan x="56" dy="17">K</tspan><tspan x="56" dy="17">1</tspan><tspan x="56" dy="17">1</tspan><tspan x="56" dy="17">1</tspan><tspan x="56" dy="17">1</tspan><tspan x="56" dy="17">0</tspan><tspan x="56" dy="17">Y</tspan><tspan x="56" dy="17">1</tspan><tspan x="56" dy="17">1</tspan><tspan x="56" dy="17">X</tspan><tspan x="56" dy="17">0</tspan><tspan x="56" dy="17">X</tspan><tspan x="56" dy="17">S</tspan><tspan x="56" dy="17">0</tspan><tspan x="56" dy="17">N</tspan><tspan x="56" dy="17">N</tspan><tspan x="56" dy="17">B</tspan><tspan x="56" dy="17">T</tspan><tspan x="56" dy="17">1</tspan><tspan x="56" dy="17">1</tspan><tspan x="56" dy="17">1</tspan><tspan x="56" dy="17">X</tspan><tspan x="56" dy="17">0</tspan><tspan x="56" dy="17">0</tspan><tspan x="56" dy="17">F</tspan><tspan x="56" dy="17">X</tspan><tspan x="56" dy="17">K</tspan><tspan x="56" dy="17">1</tspan><tspan x="56" dy="17">Y</tspan><tspan x="56" dy="17">X</tspan></text>
<text x="80" y="-130" fill="#6AFFB5" opacity="0.29"><tspan x="80" dy="17">F</tspan><tspan x="80" dy="17">0</tspan><tspan x="80" dy="17">H</tspan><tspan x="80" dy="17">0</tspan><tspan x="80" dy="17">Q</tspan><tspan x="80" dy="17">T</tspan><tspan x="80" dy="17">T</tspan><tspan x="80" dy="17">V</tspan><tspan x="80" dy="17">1</tspan><tspan x="80" dy="17">N</tspan><tspan x="80" dy="17">0</tspan><tspan x="80" dy="17">T</tspan><tspan x="80" dy="17">1</tspan><tspan x="80" dy="17">O</tspan><tspan x="80" dy="17">D</tspan><tspan x="80" dy="17">0</tspan><tspan x="80" dy="17">K</tspan><tspan x="80" dy="17">H</tspan><tspan x="80" dy="17">0</tspan><tspan x="80" dy="17">0</tspan><tspan x="80" dy="17">Q</tspan><tspan x="80" dy="17">B</tspan><tspan x="80" dy="17">1</tspan><tspan x="80" dy="17">H</tspan><tspan x="80" dy="17">S</tspan><tspan x="80" dy="17">M</tspan><tspan x="80" dy="17">L</tspan><tspan x="80" dy="17">1</tspan><tspan x="80" dy="17">N</tspan><tspan x="80" dy="17">S</tspan><tspan x="80" dy="17">0</tspan><tspan x="80" dy="17">0</tspan><tspan x="80" dy="17">R</tspan><tspan x="80" dy="17">1</tspan><tspan x="80" dy="17">0</tspan><tspan x="80" dy="17">0</tspan><tspan x="80" dy="17">1</tspan><tspan x="80" dy="17">U</tspan><tspan x="80" dy="17">1</tspan><tspan x="80" dy="17">Y</tspan><tspan x="80" dy="17">0</tspan><tspan x="80" dy="17">1</tspan><tspan x="80" dy="17">1</tspan><tspan x="80" dy="17">1</tspan><tspan x="80" dy="17">1</tspan><tspan x="80" dy="17">0</tspan></text>
<text x="104" y="-171" fill="#6AFFB5" opacity="0.26"><tspan x="104" dy="17">C</tspan><tspan x="104" dy="17">Y</tspan><tspan x="104" dy="17">O</tspan><tspan x="104" dy="17">0</tspan><tspan x="104" dy="17">E</tspan><tspan x="104" dy="17">D</tspan><tspan x="104" dy="17">Y</tspan><tspan x="104" dy="17">N</tspan><tspan x="104" dy="17">1</tspan><tspan x="104" dy="17">O</tspan><tspan x="104" dy="17">1</tspan><tspan x="104" dy="17">M</tspan><tspan x="104" dy="17">Y</tspan><tspan x="104" dy="17">0</tspan><tspan x="104" dy="17">0</tspan><tspan x="104" dy="17">1</tspan><tspan x="104" dy="17">Q</tspan><tspan x="104" dy="17">W</tspan><tspan x="104" dy="17">K</tspan><tspan x="104" dy="17">V</tspan><tspan x="104" dy="17">E</tspan><tspan x="104" dy="17">0</tspan><tspan x="104" dy="17">R</tspan><tspan x="104" dy="17">H</tspan><tspan x="104" dy="17">0</tspan><tspan x="104" dy="17">X</tspan><tspan x="104" dy="17">B</tspan><tspan x="104" dy="17">1</tspan><tspan x="104" dy="17">S</tspan><tspan x="104" dy="17">0</tspan><tspan x="104" dy="17">B</tspan><tspan x="104" dy="17">R</tspan><tspan x="104" dy="17">1</tspan><tspan x="104" dy="17">0</tspan><tspan x="104" dy="17">D</tspan><tspan x="104" dy="17">S</tspan><tspan x="104" dy="17">Z</tspan><tspan x="104" dy="17">Q</tspan><tspan x="104" dy="17">W</tspan><tspan x="104" dy="17">1</tspan><tspan x="104" dy="17">U</tspan><tspan x="104" dy="17">S</tspan><tspan x="104" dy="17">U</tspan><tspan x="104" dy="17">X</tspan><tspan x="104" dy="17">S</tspan><tspan x="104" dy="17">0</tspan></text>
<text x="128" y="-124" fill="#63F3FF" opacity="0.30"><tspan x="128" dy="17">Z</tspan><tspan x="128" dy="17">0</tspan><tspan x="128" dy="17">0</tspan><tspan x="128" dy="17">X</tspan><tspan x="128" dy="17">1</tspan><tspan x="128" dy="17">N</tspan><tspan x="128" dy="17">1</tspan><tspan x="128" dy="17">0</tspan><tspan x="128" dy="17">B</tspan><tspan x="128" dy="17">0</tspan><tspan x="128" dy="17">Y</tspan><tspan x="128" dy="17">N</tspan><tspan x="128" dy="17">Y</tspan><tspan x="128" dy="17">R</tspan><tspan x="128" dy="17">U</tspan><tspan x="128" dy="17">0</tspan><tspan x="128" dy="17">1</tspan><tspan x="128" dy="17">S</tspan><tspan x="128" dy="17">Y</tspan><tspan x="128" dy="17">1</tspan><tspan x="128" dy="17">L</tspan><tspan x="128" dy="17">1</tspan><tspan x="128" dy="17">1</tspan><tspan x="128" dy="17">1</tspan><tspan x="128" dy="17">0</tspan><tspan x="128" dy="17">E</tspan><tspan x="128" dy="17">L</tspan><tspan x="128" dy="17">1</tspan><tspan x="128" dy="17">0</tspan><tspan x="128" dy="17">Y</tspan><tspan x="128" dy="17">1</tspan><tspan x="128" dy="17">0</tspan><tspan x="128" dy="17">N</tspan><tspan x="128" dy="17">S</tspan><tspan x="128" dy="17">0</tspan><tspan x="128" dy="17">S</tspan><tspan x="128" dy="17">0</tspan><tspan x="128" dy="17">Q</tspan><tspan x="128" dy="17">T</tspan><tspan x="128" dy="17">K</tspan><tspan x="128" dy="17">D</tspan><tspan x="128" dy="17">K</tspan><tspan x="128" dy="17">B</tspan><tspan x="128" dy="17">Y</tspan><tspan x="128" dy="17">L</tspan><tspan x="128" dy="17">0</tspan></text>
<text x="152" y="-283" fill="#6AFFB5" opacity="0.32"><tspan x="152" dy="17">Y</tspan><tspan x="152" dy="17">F</tspan><tspan x="152" dy="17">B</tspan><tspan x="152" dy="17">H</tspan><tspan x="152" dy="17">K</tspan><tspan x="152" dy="17">1</tspan><tspan x="152" dy="17">1</tspan><tspan x="152" dy="17">B</tspan><tspan x="152" dy="17">1</tspan><tspan x="152" dy="17">S</tspan><tspan x="152" dy="17">O</tspan><tspan x="152" dy="17">1</tspan><tspan x="152" dy="17">Y</tspan><tspan x="152" dy="17">S</tspan><tspan x="152" dy="17">1</tspan><tspan x="152" dy="17">0</tspan><tspan x="152" dy="17">Z</tspan><tspan x="152" dy="17">1</tspan><tspan x="152" dy="17">1</tspan><tspan x="152" dy="17">L</tspan><tspan x="152" dy="17">1</tspan><tspan x="152" dy="17">M</tspan><tspan x="152" dy="17">H</tspan><tspan x="152" dy="17">E</tspan><tspan x="152" dy="17">1</tspan><tspan x="152" dy="17">X</tspan><tspan x="152" dy="17">Z</tspan><tspan x="152" dy="17">1</tspan><tspan x="152" dy="17">S</tspan><tspan x="152" dy="17">V</tspan><tspan x="152" dy="17">0</tspan><tspan x="152" dy="17">0</tspan><tspan x="152" dy="17">0</tspan><tspan x="152" dy="17">1</tspan><tspan x="152" dy="17">X</tspan><tspan x="152" dy="17">1</tspan><tspan x="152" dy="17">1</tspan><tspan x="152" dy="17">1</tspan><tspan x="152" dy="17">0</tspan><tspan x="152" dy="17">0</tspan><tspan x="152" dy="17">1</tspan><tspan x="152" dy="17">1</tspan><tspan x="152" dy="17">O</tspan><tspan x="152" dy="17">1</tspan><tspan x="152" dy="17">0</tspan><tspan x="152" dy="17">F</tspan></text>
<text x="176" y="-142" fill="#6AFFB5" opacity="0.29"><tspan x="176" dy="17">F</tspan><tspan x="176" dy="17">V</tspan><tspan x="176" dy="17">0</tspan><tspan x="176" dy="17">U</tspan><tspan x="176" dy="17">E</tspan><tspan x="176" dy="17">0</tspan><tspan x="176" dy="17">1</tspan><tspan x="176" dy="17">0</tspan><tspan x="176" dy="17">0</tspan><tspan x="176" dy="17">V</tspan><tspan x="176" dy="17">1</tspan><tspan x="176" dy="17">0</tspan><tspan x="176" dy="17">1</tspan><tspan x="176" dy="17">R</tspan><tspan x="176" dy="17">L</tspan><tspan x="176" dy="17">Q</tspan><tspan x="176" dy="17">1</tspan><tspan x="176" dy="17">0</tspan><tspan x="176" dy="17">B</tspan><tspan x="176" dy="17">Q</tspan><tspan x="176" dy="17">T</tspan><tspan x="176" dy="17">K</tspan><tspan x="176" dy="17">0</tspan><tspan x="176" dy="17">1</tspan><tspan x="176" dy="17">F</tspan><tspan x="176" dy="17">N</tspan><tspan x="176" dy="17">1</tspan><tspan x="176" dy="17">S</tspan><tspan x="176" dy="17">0</tspan><tspan x="176" dy="17">E</tspan><tspan x="176" dy="17">O</tspan><tspan x="176" dy="17">0</tspan><tspan x="176" dy="17">U</tspan><tspan x="176" dy="17">X</tspan><tspan x="176" dy="17">1</tspan><tspan x="176" dy="17">B</tspan><tspan x="176" dy="17">Q</tspan><tspan x="176" dy="17">1</tspan><tspan x="176" dy="17">U</tspan><tspan x="176" dy="17">V</tspan><tspan x="176" dy="17">0</tspan><tspan x="176" dy="17">B</tspan><tspan x="176" dy="17">L</tspan><tspan x="176" dy="17">0</tspan><tspan x="176" dy="17">U</tspan><tspan x="176" dy="17">M</tspan></text>
<text x="200" y="-162" fill="#6AFFB5" opacity="0.27"><tspan x="200" dy="17">O</tspan><tspan x="200" dy="17">V</tspan><tspan x="200" dy="17">U</tspan><tspan x="200" dy="17">1</tspan><tspan x="200" dy="17">0</tspan><tspan x="200" dy="17">E</tspan><tspan x="200" dy="17">1</tspan><tspan x="200" dy="17">1</tspan><tspan x="200" dy="17">Z</tspan><tspan x="200" dy="17">0</tspan><tspan x="200" dy="17">1</tspan><tspan x="200" dy="17">1</tspan><tspan x="200" dy="17">C</tspan><tspan x="200" dy="17">Y</tspan><tspan x="200" dy="17">V</tspan><tspan x="200" dy="17">1</tspan><tspan x="200" dy="17">V</tspan><tspan x="200" dy="17">V</tspan><tspan x="200" dy="17">0</tspan><tspan x="200" dy="17">Q</tspan><tspan x="200" dy="17">V</tspan><tspan x="200" dy="17">0</tspan><tspan x="200" dy="17">Y</tspan><tspan x="200" dy="17">Z</tspan><tspan x="200" dy="17">0</tspan><tspan x="200" dy="17">D</tspan><tspan x="200" dy="17">D</tspan><tspan x="200" dy="17">H</tspan><tspan x="200" dy="17">V</tspan><tspan x="200" dy="17">U</tspan><tspan x="200" dy="17">1</tspan><tspan x="200" dy="17">S</tspan><tspan x="200" dy="17">H</tspan><tspan x="200" dy="17">0</tspan><tspan x="200" dy="17">U</tspan><tspan x="200" dy="17">N</tspan><tspan x="200" dy="17">1</tspan><tspan x="200" dy="17">V</tspan><tspan x="200" dy="17">E</tspan><tspan x="200" dy="17">V</tspan><tspan x="200" dy="17">Q</tspan><tspan x="200" dy="17">H</tspan><tspan x="200" dy="17">1</tspan><tspan x="200" dy="17">B</tspan><tspan x="200" dy="17">S</tspan><tspan x="200" dy="17">R</tspan></text>
<text x="224" y="-25" fill="#6AFFB5" opacity="0.29"><tspan x="224" dy="17">L</tspan><tspan x="224" dy="17">0</tspan><tspan x="224" dy="17">N</tspan><tspan x="224" dy="17">1</tspan><tspan x="224" dy="17">Q</tspan><tspan x="224" dy="17">1</tspan><tspan x="224" dy="17">0</tspan><tspan x="224" dy="17">0</tspan><tspan x="224" dy="17">1</tspan><tspan x="224" dy="17">1</tspan><tspan x="224" dy="17">E</tspan><tspan x="224" dy="17">Y</tspan><tspan x="224" dy="17">1</tspan><tspan x="224" dy="17">V</tspan><tspan x="224" dy="17">N</tspan><tspan x="224" dy="17">S</tspan><tspan x="224" dy="17">V</tspan><tspan x="224" dy="17">Z</tspan><tspan x="224" dy="17">0</tspan><tspan x="224" dy="17">B</tspan><tspan x="224" dy="17">1</tspan><tspan x="224" dy="17">N</tspan><tspan x="224" dy="17">0</tspan><tspan x="224" dy="17">1</tspan><tspan x="224" dy="17">0</tspan><tspan x="224" dy="17">B</tspan><tspan x="224" dy="17">M</tspan><tspan x="224" dy="17">0</tspan><tspan x="224" dy="17">L</tspan><tspan x="224" dy="17">S</tspan><tspan x="224" dy="17">E</tspan><tspan x="224" dy="17">1</tspan><tspan x="224" dy="17">S</tspan><tspan x="224" dy="17">0</tspan><tspan x="224" dy="17">S</tspan><tspan x="224" dy="17">Y</tspan><tspan x="224" dy="17">1</tspan><tspan x="224" dy="17">E</tspan><tspan x="224" dy="17">1</tspan><tspan x="224" dy="17">S</tspan><tspan x="224" dy="17">O</tspan><tspan x="224" dy="17">U</tspan><tspan x="224" dy="17">1</tspan><tspan x="224" dy="17">B</tspan><tspan x="224" dy="17">1</tspan><tspan x="224" dy="17">1</tspan></text>
<text x="248" y="-183" fill="#6AFFB5" opacity="0.32"><tspan x="248" dy="17">V</tspan><tspan x="248" dy="17">R</tspan><tspan x="248" dy="17">H</tspan><tspan x="248" dy="17">0</tspan><tspan x="248" dy="17">F</tspan><tspan x="248" dy="17">N</tspan><tspan x="248" dy="17">1</tspan><tspan x="248" dy="17">1</tspan><tspan x="248" dy="17">Z</tspan><tspan x="248" dy="17">B</tspan><tspan x="248" dy="17">M</tspan><tspan x="248" dy="17">1</tspan><tspan x="248" dy="17">U</tspan><tspan x="248" dy="17">T</tspan><tspan x="248" dy="17">U</tspan><tspan x="248" dy="17">V</tspan><tspan x="248" dy="17">E</tspan><tspan x="248" dy="17">S</tspan><tspan x="248" dy="17">H</tspan><tspan x="248" dy="17">R</tspan><tspan x="248" dy="17">M</tspan><tspan x="248" dy="17">Z</tspan><tspan x="248" dy="17">1</tspan><tspan x="248" dy="17">0</tspan><tspan x="248" dy="17">T</tspan><tspan x="248" dy="17">K</tspan><tspan x="248" dy="17">0</tspan><tspan x="248" dy="17">Z</tspan><tspan x="248" dy="17">0</tspan><tspan x="248" dy="17">S</tspan><tspan x="248" dy="17">Y</tspan><tspan x="248" dy="17">D</tspan><tspan x="248" dy="17">0</tspan><tspan x="248" dy="17">1</tspan><tspan x="248" dy="17">0</tspan><tspan x="248" dy="17">F</tspan><tspan x="248" dy="17">1</tspan><tspan x="248" dy="17">Y</tspan><tspan x="248" dy="17">0</tspan><tspan x="248" dy="17">B</tspan><tspan x="248" dy="17">N</tspan><tspan x="248" dy="17">U</tspan><tspan x="248" dy="17">1</tspan><tspan x="248" dy="17">1</tspan><tspan x="248" dy="17">K</tspan><tspan x="248" dy="17">1</tspan></text>
<text x="272" y="-242" fill="#6AFFB5" opacity="0.29"><tspan x="272" dy="17">0</tspan><tspan x="272" dy="17">S</tspan><tspan x="272" dy="17">0</tspan><tspan x="272" dy="17">F</tspan><tspan x="272" dy="17">V</tspan><tspan x="272" dy="17">S</tspan><tspan x="272" dy="17">B</tspan><tspan x="272" dy="17">0</tspan><tspan x="272" dy="17">R</tspan><tspan x="272" dy="17">0</tspan><tspan x="272" dy="17">F</tspan><tspan x="272" dy="17">0</tspan><tspan x="272" dy="17">Y</tspan><tspan x="272" dy="17">0</tspan><tspan x="272" dy="17">0</tspan><tspan x="272" dy="17">1</tspan><tspan x="272" dy="17">S</tspan><tspan x="272" dy="17">L</tspan><tspan x="272" dy="17">0</tspan><tspan x="272" dy="17">1</tspan><tspan x="272" dy="17">X</tspan><tspan x="272" dy="17">K</tspan><tspan x="272" dy="17">B</tspan><tspan x="272" dy="17">R</tspan><tspan x="272" dy="17">N</tspan><tspan x="272" dy="17">X</tspan><tspan x="272" dy="17">0</tspan><tspan x="272" dy="17">1</tspan><tspan x="272" dy="17">O</tspan><tspan x="272" dy="17">V</tspan><tspan x="272" dy="17">Q</tspan><tspan x="272" dy="17">0</tspan><tspan x="272" dy="17">0</tspan><tspan x="272" dy="17">1</tspan><tspan x="272" dy="17">E</tspan><tspan x="272" dy="17">B</tspan><tspan x="272" dy="17">1</tspan><tspan x="272" dy="17">F</tspan><tspan x="272" dy="17">0</tspan><tspan x="272" dy="17">Z</tspan><tspan x="272" dy="17">Q</tspan><tspan x="272" dy="17">0</tspan><tspan x="272" dy="17">1</tspan><tspan x="272" dy="17">0</tspan><tspan x="272" dy="17">1</tspan><tspan x="272" dy="17">K</tspan></text>
<text x="296" y="-117" fill="#6AFFB5" opacity="0.27"><tspan x="296" dy="17">0</tspan><tspan x="296" dy="17">0</tspan><tspan x="296" dy="17">K</tspan><tspan x="296" dy="17">Z</tspan><tspan x="296" dy="17">1</tspan><tspan x="296" dy="17">N</tspan><tspan x="296" dy="17">1</tspan><tspan x="296" dy="17">V</tspan><tspan x="296" dy="17">F</tspan><tspan x="296" dy="17">0</tspan><tspan x="296" dy="17">Q</tspan><tspan x="296" dy="17">1</tspan><tspan x="296" dy="17">0</tspan><tspan x="296" dy="17">1</tspan><tspan x="296" dy="17">1</tspan><tspan x="296" dy="17">O</tspan><tspan x="296" dy="17">Z</tspan><tspan x="296" dy="17">1</tspan><tspan x="296" dy="17">1</tspan><tspan x="296" dy="17">Y</tspan><tspan x="296" dy="17">H</tspan><tspan x="296" dy="17">0</tspan><tspan x="296" dy="17">M</tspan><tspan x="296" dy="17">0</tspan><tspan x="296" dy="17">0</tspan><tspan x="296" dy="17">1</tspan><tspan x="296" dy="17">1</tspan><tspan x="296" dy="17">1</tspan><tspan x="296" dy="17">B</tspan><tspan x="296" dy="17">V</tspan><tspan x="296" dy="17">0</tspan><tspan x="296" dy="17">U</tspan><tspan x="296" dy="17">1</tspan><tspan x="296" dy="17">Q</tspan><tspan x="296" dy="17">0</tspan><tspan x="296" dy="17">D</tspan><tspan x="296" dy="17">0</tspan><tspan x="296" dy="17">1</tspan><tspan x="296" dy="17">Y</tspan><tspan x="296" dy="17">1</tspan><tspan x="296" dy="17">V</tspan><tspan x="296" dy="17">1</tspan><tspan x="296" dy="17">F</tspan><tspan x="296" dy="17">V</tspan><tspan x="296" dy="17">0</tspan><tspan x="296" dy="17">O</tspan></text>
<text x="320" y="-190" fill="#6AFFB5" opacity="0.25"><tspan x="320" dy="17">H</tspan><tspan x="320" dy="17">0</tspan><tspan x="320" dy="17">1</tspan><tspan x="320" dy="17">B</tspan><tspan x="320" dy="17">B</tspan><tspan x="320" dy="17">1</tspan><tspan x="320" dy="17">1</tspan><tspan x="320" dy="17">1</tspan><tspan x="320" dy="17">1</tspan><tspan x="320" dy="17">K</tspan><tspan x="320" dy="17">0</tspan><tspan x="320" dy="17">1</tspan><tspan x="320" dy="17">M</tspan><tspan x="320" dy="17">E</tspan><tspan x="320" dy="17">0</tspan><tspan x="320" dy="17">0</tspan><tspan x="320" dy="17">O</tspan><tspan x="320" dy="17">H</tspan><tspan x="320" dy="17">0</tspan><tspan x="320" dy="17">0</tspan><tspan x="320" dy="17">0</tspan><tspan x="320" dy="17">X</tspan><tspan x="320" dy="17">1</tspan><tspan x="320" dy="17">B</tspan><tspan x="320" dy="17">Q</tspan><tspan x="320" dy="17">B</tspan><tspan x="320" dy="17">B</tspan><tspan x="320" dy="17">B</tspan><tspan x="320" dy="17">0</tspan><tspan x="320" dy="17">Y</tspan><tspan x="320" dy="17">E</tspan><tspan x="320" dy="17">0</tspan><tspan x="320" dy="17">1</tspan><tspan x="320" dy="17">1</tspan><tspan x="320" dy="17">X</tspan><tspan x="320" dy="17">Z</tspan><tspan x="320" dy="17">W</tspan><tspan x="320" dy="17">0</tspan><tspan x="320" dy="17">0</tspan><tspan x="320" dy="17">1</tspan><tspan x="320" dy="17">V</tspan><tspan x="320" dy="17">E</tspan><tspan x="320" dy="17">Z</tspan><tspan x="320" dy="17">M</tspan><tspan x="320" dy="17">1</tspan><tspan x="320" dy="17">X</tspan></text>
<text x="344" y="-113" fill="#6AFFB5" opacity="0.25"><tspan x="344" dy="17">1</tspan><tspan x="344" dy="17">V</tspan><tspan x="344" dy="17">E</tspan><tspan x="344" dy="17">0</tspan><tspan x="344" dy="17">L</tspan><tspan x="344" dy="17">0</tspan><tspan x="344" dy="17">0</tspan><tspan x="344" dy="17">Y</tspan><tspan x="344" dy="17">M</tspan><tspan x="344" dy="17">0</tspan><tspan x="344" dy="17">1</tspan><tspan x="344" dy="17">E</tspan><tspan x="344" dy="17">X</tspan><tspan x="344" dy="17">1</tspan><tspan x="344" dy="17">L</tspan><tspan x="344" dy="17">0</tspan><tspan x="344" dy="17">E</tspan><tspan x="344" dy="17">V</tspan><tspan x="344" dy="17">0</tspan><tspan x="344" dy="17">1</tspan><tspan x="344" dy="17">B</tspan><tspan x="344" dy="17">Y</tspan><tspan x="344" dy="17">X</tspan><tspan x="344" dy="17">1</tspan><tspan x="344" dy="17">F</tspan><tspan x="344" dy="17">H</tspan><tspan x="344" dy="17">0</tspan><tspan x="344" dy="17">N</tspan><tspan x="344" dy="17">0</tspan><tspan x="344" dy="17">V</tspan><tspan x="344" dy="17">Q</tspan><tspan x="344" dy="17">0</tspan><tspan x="344" dy="17">1</tspan><tspan x="344" dy="17">O</tspan><tspan x="344" dy="17">1</tspan><tspan x="344" dy="17">V</tspan><tspan x="344" dy="17">W</tspan><tspan x="344" dy="17">K</tspan><tspan x="344" dy="17">F</tspan><tspan x="344" dy="17">1</tspan><tspan x="344" dy="17">1</tspan><tspan x="344" dy="17">Z</tspan><tspan x="344" dy="17">X</tspan><tspan x="344" dy="17">V</tspan><tspan x="344" dy="17">0</tspan><tspan x="344" dy="17">0</tspan></text>
</g></svg>
